<svg width="38" height="40" viewBox="0 0 38 40" fill="none" xmlns="http://www.w3.org/2000/svg">
<path d="M18 0C20.182 0 22.234 0.584 24 1.608C24.239 1.73303 24.4503 1.90512 24.621 2.1139C24.7918 2.32269 24.9186 2.56387 24.9938 2.82293C25.0689 3.08198 25.0909 3.35356 25.0584 3.62133C25.0258 3.8891 24.9395 4.14753 24.8045 4.38106C24.6695 4.61459 24.4887 4.8184 24.2729 4.98023C24.0571 5.14206 23.8108 5.25857 23.5488 5.32274C23.2868 5.38692 23.0145 5.39743 22.7484 5.35365C22.4822 5.30987 22.2276 5.21271 22 5.068C20.7836 4.36569 19.4037 3.99604 17.9991 3.9962C16.5944 3.99637 15.2146 4.36635 13.9984 5.06895C12.7821 5.77154 11.7722 6.78199 11.0704 7.99867C10.3685 9.21535 9.99933 10.5954 10 12L32 12.002C33.0609 12.002 34.0783 12.4234 34.8284 13.1736C35.5786 13.9237 36 14.9411 36 16.002V36.002C36 37.0629 35.5786 38.0803 34.8284 38.8304C34.0783 39.5806 33.0609 40.002 32 40.002H4C2.93913 40.002 1.92172 39.5806 1.17157 38.8304C0.421427 38.0803 0 37.0629 0 36.002V16C0 14.9391 0.421427 13.9217 1.17157 13.1716C1.92172 12.4214 2.93913 12 4 12H6C6 8.8174 7.26428 5.76515 9.51472 3.51472C11.7652 1.26428 14.8174 0 18 0ZM32 16H4V36H32V16ZM18 20C18.8532 20.0003 19.6839 20.2733 20.3709 20.7793C21.0578 21.2853 21.565 21.9976 21.8183 22.8123C22.0717 23.627 22.0579 24.5014 21.7789 25.3077C21.5 26.114 20.9706 26.81 20.268 27.294L20 27.464V30C19.9994 30.5098 19.8042 31.0001 19.4543 31.3707C19.1044 31.7414 18.6261 31.9645 18.1172 31.9943C17.6083 32.0242 17.1072 31.8587 16.7163 31.5315C16.3254 31.2043 16.0742 30.7402 16.014 30.234L16 30V27.464C15.2375 27.0237 14.6415 26.3441 14.3046 25.5306C13.9677 24.7171 13.9086 23.8152 14.1365 22.9647C14.3644 22.1142 14.8665 21.3627 15.5651 20.8266C16.2636 20.2906 17.1195 20 18 20ZM33.836 6.042L35.768 6.562C36.2606 6.71621 36.6745 7.05491 36.9232 7.50725C37.1718 7.9596 37.2359 8.49056 37.1021 8.9891C36.9683 9.48764 36.647 9.91514 36.2052 10.1822C35.7635 10.4492 35.2356 10.5352 34.732 10.422L32.802 9.906C32.2918 9.76692 31.8575 9.43144 31.594 8.97294C31.3305 8.51444 31.2593 7.97025 31.396 7.45941C31.5327 6.94856 31.8661 6.51265 32.3234 6.24703C32.7807 5.9814 33.3245 5.90768 33.836 6.042ZM31.266 0.18C31.5197 0.247997 31.7576 0.365312 31.966 0.525243C32.1744 0.685175 32.3492 0.884591 32.4805 1.1121C32.6118 1.33961 32.697 1.59076 32.7312 1.85121C32.7655 2.11165 32.7481 2.37629 32.68 2.63L32.422 3.594C32.3551 3.84879 32.2385 4.08785 32.0789 4.29745C31.9194 4.50706 31.72 4.68307 31.4922 4.8154C31.2644 4.94772 31.0127 5.03373 30.7516 5.06851C30.4905 5.10328 30.2251 5.08613 29.9706 5.01803C29.7161 4.94993 29.4776 4.83224 29.2687 4.6717C29.0599 4.51116 28.8848 4.31094 28.7535 4.08254C28.6223 3.85414 28.5374 3.60206 28.5039 3.34078C28.4703 3.07949 28.4887 2.81415 28.558 2.56L28.818 1.594C28.9553 1.08201 29.2903 0.645493 29.7494 0.380357C30.2084 0.11522 30.7539 0.0431565 31.266 0.18Z" fill="white"/>
</svg>
