<svg width="41" height="38" viewBox="0 0 41 38" fill="none" xmlns="http://www.w3.org/2000/svg">
<path d="M1.40047 3.2C0.900466 2.53333 0.833799 1.83333 1.20047 1.1C1.56713 0.366667 2.16713 0 3.00047 0H25.0005C25.6338 0 26.2338 0.142 26.8005 0.426C27.3671 0.71 27.8338 1.10133 28.2005 1.6L36.3505 12.45C36.8505 13.1167 36.9171 13.8167 36.5505 14.55C36.1838 15.2833 35.5838 15.65 34.7505 15.65C34.4171 15.65 34.1171 15.5833 33.8505 15.45C33.5838 15.3167 33.3505 15.1167 33.1505 14.85L25.0005 4H7.00047L14.2005 13.6C14.7338 14.3 15.0005 15.1 15.0005 16C15.0005 16.9 14.7338 17.7 14.2005 18.4L7.00047 28H15.8005C16.3005 28 16.7338 28.1587 17.1005 28.476C17.4671 28.7933 17.6838 29.2013 17.7505 29.7C17.8505 30.3 17.6918 30.8333 17.2745 31.3C16.8571 31.7667 16.3491 32 15.7505 32H3.00047C2.16713 32 1.56713 31.6333 1.20047 30.9C0.833799 30.1667 0.900466 29.4667 1.40047 28.8L11.0005 16L1.40047 3.2ZM29.5505 28.25L28.6505 27.35C28.3505 27.05 28.0005 26.908 27.6005 26.924C27.2005 26.94 26.8505 27.0987 26.5505 27.4C26.2505 27.7013 26.1005 28.0513 26.1005 28.45C26.1005 28.8487 26.2505 29.1987 26.5505 29.5L28.1505 31.1C28.5505 31.5 29.0171 31.7 29.5505 31.7C30.0838 31.7 30.5505 31.5 30.9505 31.1L35.4505 26.65C35.7505 26.35 35.9005 26 35.9005 25.6C35.9005 25.2 35.7505 24.85 35.4505 24.55C35.1505 24.25 34.8005 24.1087 34.4005 24.126C34.0005 24.1433 33.6505 24.2847 33.3505 24.55L29.5505 28.25ZM31.0005 38C28.2338 38 25.8758 37.0247 23.9265 35.074C21.9771 33.1233 21.0018 30.7653 21.0005 28C20.9991 25.2347 21.9745 22.8767 23.9265 20.926C25.8785 18.9753 28.2365 18 31.0005 18C33.7645 18 36.1231 18.9753 38.0765 20.926C40.0298 22.8767 41.0045 25.2347 41.0005 28C40.9965 30.7653 40.0211 33.124 38.0745 35.076C36.1278 37.028 33.7698 38.0027 31.0005 38Z" fill="white"/>
</svg>
