<svg width="32" height="33" viewBox="0 0 32 33" fill="none" xmlns="http://www.w3.org/2000/svg">
<path d="M1.00098 32C5.66498 27.116 14.287 26.886 19.001 32M24.001 1L24.517 2.394C25.193 4.222 25.531 5.136 26.197 5.802C26.865 6.47 27.779 6.808 29.607 7.484L31.001 8L29.607 8.516C27.779 9.192 26.865 9.53 26.199 10.196C25.531 10.864 25.193 11.778 24.517 13.606L24.001 15L23.485 13.606C22.809 11.778 22.471 10.864 21.805 10.198C21.137 9.53 20.223 9.192 18.395 8.516L17.001 8L18.395 7.484C20.223 6.808 21.137 6.47 21.803 5.804C22.471 5.136 22.809 4.222 23.485 2.394L24.001 1ZM14.991 17C14.991 19.76 12.751 22 9.98498 22C9.32769 22.0011 8.67665 21.8725 8.0691 21.6217C7.46155 21.3709 6.90941 21.0028 6.44427 20.5384C5.97913 20.074 5.61012 19.5224 5.35834 18.9153C5.10657 18.3081 4.97698 17.6573 4.97698 17C4.97698 14.24 7.21698 12 9.98498 12C10.6421 11.9992 11.2929 12.128 11.9002 12.3789C12.5076 12.6298 13.0595 12.998 13.5244 13.4623C13.9893 13.9267 14.3582 14.4782 14.6098 15.0852C14.8614 15.6922 14.991 16.3429 14.991 17Z" stroke="white" stroke-width="2" stroke-linecap="round" stroke-linejoin="round"/>
</svg>
