<svg width="44" height="44" viewBox="0 0 44 44" fill="none" xmlns="http://www.w3.org/2000/svg">
<path fill-rule="evenodd" clip-rule="evenodd" d="M28.501 8C28.501 6.51664 28.9408 5.0666 29.765 3.83323C30.5891 2.59986 31.7604 1.63856 33.1309 1.07091C34.5013 0.50325 36.0093 0.354725 37.4642 0.644114C38.919 0.933503 40.2554 1.64781 41.3043 2.6967C42.3532 3.7456 43.0675 5.08197 43.3569 6.53683C43.6463 7.99168 43.4977 9.49968 42.9301 10.8701C42.3624 12.2406 41.4011 13.4119 40.1678 14.236C38.9344 15.0601 37.4843 15.5 36.001 15.5H31.501V28.5H36.001C37.4843 28.5 38.9342 28.9398 40.1675 29.7638C41.4009 30.5879 42.3622 31.7591 42.9299 33.1294C43.4976 34.4997 43.6462 36.0076 43.357 37.4624C43.0678 38.9172 42.3537 40.2536 41.305 41.3026C40.2563 42.3516 38.9201 43.066 37.4654 43.3556C36.0107 43.6453 34.5027 43.497 33.1322 42.9297C31.7618 42.3623 30.5903 41.4013 29.7659 40.1682C28.9416 38.9351 28.5014 37.4853 28.501 36.002V31.5H15.501V36.002C15.501 37.4854 15.0611 38.9356 14.2369 40.169C13.4127 41.4024 12.2412 42.3637 10.8706 42.9313C9.50008 43.4989 7.99198 43.6473 6.53707 43.3577C5.08215 43.0682 3.74579 42.3537 2.69697 41.3046C1.64816 40.2555 0.93401 38.9189 0.644847 37.464C0.355683 36.009 0.504494 34.5009 1.07246 33.1305C1.64042 31.7601 2.60203 30.5889 3.83566 29.765C5.06929 28.9411 6.51954 28.5016 8.00298 28.502H12.501V15.502H8.00298C6.5197 15.502 5.06974 15.0622 3.83641 14.2382C2.60309 13.4141 1.64179 12.2429 1.07408 10.8726C0.506359 9.50226 0.357717 7.99436 0.646944 6.53956C0.936172 5.08476 1.65028 3.74838 2.69897 2.69941C3.74767 1.65044 5.08385 0.935973 6.53858 0.646358C7.9933 0.356743 9.50124 0.504983 10.8717 1.07233C12.2422 1.63968 13.4137 2.60067 14.238 3.83377C15.0624 5.06688 15.5026 6.51673 15.503 8V12.5H28.503L28.501 8ZM12.501 12.5V8C12.501 7.10999 12.2371 6.23996 11.7426 5.49994C11.2481 4.75992 10.5453 4.18314 9.72306 3.84255C8.90079 3.50195 7.99599 3.41284 7.12307 3.58647C6.25016 3.7601 5.44834 4.18869 4.819 4.81802C4.18966 5.44736 3.76108 6.24918 3.58745 7.1221C3.41381 7.99501 3.50293 8.89981 3.84352 9.72208C4.18412 10.5443 4.76089 11.2471 5.50091 11.7416C6.24093 12.2361 7.11096 12.5 8.00098 12.5H12.501ZM36.001 3.5C34.8075 3.5 33.6629 3.97411 32.819 4.81802C31.9751 5.66194 31.501 6.80653 31.501 8V12.5H36.001C36.5919 12.5 37.1771 12.3836 37.7231 12.1575C38.269 11.9313 38.7651 11.5998 39.183 11.182C39.6008 10.7641 39.9323 10.268 40.1584 9.72208C40.3846 9.17611 40.501 8.59095 40.501 8C40.501 7.40905 40.3846 6.82389 40.1584 6.27793C39.9323 5.73196 39.6008 5.23589 39.183 4.81802C38.7651 4.40016 38.269 4.06869 37.7231 3.84255C37.1771 3.6164 36.5919 3.5 36.001 3.5ZM15.501 15.5V28.5H28.501V15.5H15.501ZM40.501 36C40.501 34.8065 40.0269 33.6619 39.183 32.818C38.339 31.9741 37.1945 31.5 36.001 31.5H31.501V36C31.501 37.1935 31.9751 38.3381 32.819 39.182C33.6629 40.0259 34.8075 40.5 36.001 40.5C37.1945 40.5 38.339 40.0259 39.183 39.182C40.0269 38.3381 40.501 37.1935 40.501 36ZM3.50098 36C3.50098 34.8065 3.97509 33.6619 4.819 32.818C5.66291 31.9741 6.80751 31.5 8.00098 31.5H12.501V36C12.501 36.591 12.3846 37.1761 12.1584 37.7221C11.9323 38.268 11.6008 38.7641 11.183 39.182C10.7651 39.5998 10.269 39.9313 9.72306 40.1575C9.17709 40.3836 8.59193 40.5 8.00098 40.5C7.41003 40.5 6.82487 40.3836 6.2789 40.1575C5.73294 39.9313 5.23686 39.5998 4.819 39.182C4.40114 38.7641 4.06967 38.268 3.84352 37.7221C3.61738 37.1761 3.50098 36.591 3.50098 36Z" fill="white"/>
</svg>
