<svg width="41" height="41" viewBox="0 0 41 41" fill="none" xmlns="http://www.w3.org/2000/svg">
<path d="M30.3616 33.0463L28.9151 31.5977C28.7238 31.4077 28.4978 31.3128 28.2372 31.3128C27.9751 31.3128 27.7491 31.4077 27.5592 31.5977C27.3693 31.7861 27.2744 32.0091 27.2744 32.2668C27.2744 32.5244 27.3693 32.7482 27.5592 32.9381L29.4584 34.8373C29.7322 35.1126 30.0407 35.2502 30.3837 35.2502C30.7267 35.2502 31.0351 35.1126 31.309 34.8373L35.9421 30.2727C36.132 30.0827 36.2343 29.8641 36.249 29.6168C36.2637 29.368 36.1614 29.1346 35.9421 28.9167C35.7522 28.7268 35.5195 28.6319 35.2442 28.6319C34.9689 28.6319 34.7356 28.7276 34.5442 28.919L30.3616 33.0463ZM8.05523 11.2788H28.9505C29.2641 11.2788 29.5261 11.1735 29.7366 10.963C29.9472 10.7525 30.0532 10.4897 30.0547 10.1746C30.0547 9.83159 29.9486 9.56218 29.7366 9.36637C29.5261 9.1691 29.2641 9.07046 28.9505 9.07046H8.05303C7.73944 9.07046 7.47665 9.17572 7.26465 9.38625C7.05265 9.59678 6.94739 9.85957 6.94886 10.1746C6.95033 10.4897 7.0556 10.7525 7.26465 10.963C7.47371 11.1735 7.73871 11.2788 8.05523 11.2788ZM31.7507 40.8395C29.2906 40.8395 27.2037 39.982 25.49 38.2668C23.7749 36.5532 22.9173 34.4663 22.9173 32.0062C22.9173 29.5461 23.7749 27.4585 25.49 25.7434C27.2052 24.0282 29.292 23.1714 31.7507 23.1729C34.2093 23.1743 36.2969 24.0312 38.0135 25.7434C39.7301 27.4556 40.5869 29.5432 40.584 32.0062C40.584 34.4648 39.7271 36.5517 38.0135 38.2668C36.2969 39.982 34.2093 40.8395 31.7507 40.8395ZM0.833984 4.40204C0.833984 3.41271 1.18143 2.5706 1.87632 1.87571C2.57121 1.18082 3.41332 0.833374 4.40265 0.833374H32.6009C33.5872 0.833374 34.4286 1.18082 35.125 1.87571C35.8199 2.5706 36.1673 3.41271 36.1673 4.40204V16.1437C36.1673 16.4573 36.0621 16.7201 35.8515 16.9321C35.641 17.1441 35.3782 17.2494 35.0631 17.2479C34.7481 17.2464 34.4853 17.1412 34.2748 16.9321C34.0642 16.7231 33.959 16.4603 33.959 16.1437V4.40204C33.959 4.06196 33.8176 3.74985 33.535 3.46571C33.2523 3.18157 32.9402 3.04024 32.5987 3.04171H4.40265C4.06257 3.04171 3.75046 3.18304 3.46632 3.46571C3.18218 3.74837 3.04085 4.06049 3.04232 4.40204V34.0688H17.052C17.0976 34.3662 17.1514 34.6636 17.2132 34.961C17.2765 35.2583 17.3575 35.5513 17.4561 35.8399C17.5547 36.1034 17.4885 36.3191 17.2574 36.4869C17.0247 36.6562 16.8039 36.6636 16.5949 36.509L16.045 36.1336C15.8816 36.0261 15.7093 35.9724 15.5282 35.9724C15.3472 35.9724 15.1742 36.0261 15.0093 36.1336L13.0726 37.474C12.9092 37.583 12.7369 37.6375 12.5558 37.6375C12.3747 37.6375 12.2017 37.583 12.0369 37.474L10.1002 36.1336C9.93526 36.0261 9.76228 35.9724 9.58119 35.9724C9.40011 35.9724 9.22786 36.0261 9.06444 36.1336L7.12773 37.474C6.96432 37.583 6.79207 37.6375 6.61098 37.6375C6.4299 37.6375 6.25691 37.583 6.09203 37.474L4.15532 36.1336C3.99043 36.0261 3.81744 35.9724 3.63636 35.9724C3.45528 35.9724 3.28303 36.0261 3.11961 36.1336L0.833984 37.9069V4.40204ZM8.05523 27.9274H16.6103C16.9254 27.9274 17.1882 27.8221 17.3987 27.6116C17.6092 27.4011 17.7145 27.1383 17.7145 26.8232C17.7145 26.5082 17.6092 26.2461 17.3987 26.0371C17.1882 25.828 16.9254 25.722 16.6103 25.7191H8.05523C7.74165 25.7191 7.47886 25.8251 7.26686 26.0371C7.05486 26.2491 6.9496 26.5111 6.95107 26.8232C6.95254 27.1354 7.0578 27.3981 7.26686 27.6116C7.47591 27.8251 7.73871 27.9304 8.05523 27.9274ZM8.05523 19.6042H23.9641C24.2777 19.6042 24.5404 19.4989 24.7524 19.2884C24.9644 19.0779 25.0697 18.8151 25.0682 18.5C25.0668 18.185 24.9615 17.9222 24.7524 17.7117C24.5434 17.5011 24.2806 17.3959 23.9641 17.3959H8.05303C7.73944 17.3959 7.47665 17.5011 7.26465 17.7117C7.05265 17.9222 6.94812 18.185 6.95107 18.5C6.95401 18.8151 7.05928 19.0779 7.26686 19.2884C7.47444 19.4989 7.73723 19.6042 8.05523 19.6042Z" fill="white"/>
</svg>
