<svg width="18" height="19" viewBox="0 0 18 19" fill="none" xmlns="http://www.w3.org/2000/svg">
<path d="M4.69162 9.23302V5.49802C4.69162 5.27535 4.77028 5.08535 4.92762 4.92802C5.08428 4.77068 5.27495 4.69202 5.49962 4.69202C5.72428 4.69202 5.91495 4.77068 6.07162 4.92802C6.22895 5.08535 6.30762 5.27535 6.30762 5.49802V9.23302C6.30762 9.45568 6.22895 9.64568 6.07162 9.80302C5.91428 9.96035 5.72362 10.039 5.49962 10.039C5.27562 10.039 5.08495 9.96035 4.92762 9.80302C4.77028 9.64568 4.69162 9.45568 4.69162 9.23302ZM9.03862 10.544V1.50002C9.03862 1.27602 9.11695 1.08535 9.27362 0.928017C9.43095 0.770683 9.62162 0.692017 9.84562 0.692017C10.0703 0.692017 10.261 0.770683 10.4176 0.928017C10.575 1.08535 10.6536 1.27602 10.6536 1.50002V10.544C10.6536 10.8133 10.571 11.0154 10.4056 11.15C10.2396 11.2847 10.054 11.352 9.84862 11.352C9.64328 11.352 9.45662 11.2847 9.28862 11.15C9.12062 11.0154 9.03728 10.8133 9.03862 10.544ZM0.307617 12.686V9.50002C0.307617 9.27602 0.385951 9.08535 0.542617 8.92802C0.699951 8.77068 0.890951 8.69202 1.11562 8.69202C1.34028 8.69202 1.53095 8.77068 1.68762 8.92802C1.84428 9.08535 1.92262 9.27602 1.92262 9.50002V12.687C1.92262 12.9564 1.83995 13.158 1.67462 13.292C1.50928 13.4267 1.32362 13.494 1.11762 13.494C0.912284 13.494 0.725617 13.4267 0.557617 13.292C0.390951 13.158 0.307617 12.9564 0.307617 12.687M1.39262 18.55C1.16928 18.55 1.01495 18.4484 0.929617 18.245C0.844284 18.0424 0.88295 17.8594 1.04562 17.696L4.95362 13.789C5.09828 13.6437 5.27662 13.5627 5.48862 13.546C5.70062 13.5294 5.88895 13.5937 6.05362 13.739L9.03862 16.304L15.7916 9.55002H13.9996C13.8576 9.55002 13.7389 9.50202 13.6436 9.40602C13.5483 9.31002 13.5003 9.19102 13.4996 9.04902C13.499 8.90702 13.5469 8.78835 13.6436 8.69302C13.7403 8.59768 13.8589 8.55002 13.9996 8.55002H16.6916C16.9209 8.55002 17.1129 8.62735 17.2676 8.78202C17.4223 8.93668 17.4996 9.12868 17.4996 9.35802V12.05C17.4996 12.192 17.4516 12.3107 17.3556 12.406C17.2596 12.5014 17.1406 12.5493 16.9986 12.55C16.8566 12.5507 16.7379 12.5027 16.6426 12.406C16.5473 12.3094 16.4996 12.1907 16.4996 12.05V10.258L9.59562 17.162C9.45095 17.3067 9.27262 17.3874 9.06062 17.404C8.84862 17.4207 8.66028 17.3564 8.49562 17.211L5.51062 14.646L1.75362 18.404C1.71095 18.444 1.65728 18.4783 1.59262 18.507C1.52795 18.5357 1.46128 18.55 1.39262 18.55Z" fill="#727272"/>
</svg>
